<svg xmlns="http://www.w3.org/2000/svg" version="1.1" xmlns:xlink="http://www.w3.org/1999/xlink" xmlns:svgjs="http://svgjs.dev/svgjs" width="1364" height="635" preserveAspectRatio="none" viewBox="0 0 1364 635"><g mask="url(&quot;#SvgjsMask1000&quot;)" fill="none"><rect width="1364" height="635" x="0" y="0" fill="#0e2a47"></rect><path d="M-107.36 385.2L-107.36 385.2" stroke="#132e65" stroke-width="1.5"></path><path d="M-107.36 385.2L-67.53 533.14" stroke="#132e65" stroke-width="1.5"></path><path d="M-107.36 385.2L93.72 407" stroke="#132e65" stroke-width="1.5"></path><path d="M-107.36 385.2L101.92 509.51" stroke="#132e65" stroke-width="1.5"></path><path d="M-107.36 385.2L-67.72 643.38" stroke="#132e65" stroke-width="1.5"></path><path d="M-107.36 385.2L216.64 519.66" stroke="#132e65" stroke-width="1.5"></path><path d="M-67.53 533.14L-67.53 533.14" stroke="#132e65" stroke-width="1.5"></path><path d="M-67.53 533.14L-67.72 643.38" stroke="#132e65" stroke-width="1.5"></path><path d="M-67.53 533.14L101.92 509.51" stroke="#132e65" stroke-width="1.5"></path><path d="M-67.53 533.14L93.72 407" stroke="#132e65" stroke-width="1.5"></path><path d="M-67.72 643.38L-67.72 643.38" stroke="#132e65" stroke-width="1.5"></path><path d="M-67.72 643.38L-44.34 840.58" stroke="#132e65" stroke-width="1.5"></path><path d="M-44.34 840.58L-44.34 840.58" stroke="#132e65" stroke-width="1.5"></path><path d="M-44.34 840.58L92.55 855.42" stroke="#132e65" stroke-width="1.5"></path><path d="M-44.34 840.58L259.29 801.9" stroke="#132e65" stroke-width="1.5"></path><path d="M-44.34 840.58L-67.53 533.14" stroke="#132e65" stroke-width="1.5"></path><path d="M-44.34 840.58L252.58 704.14" stroke="#132e65" stroke-width="1.5"></path><path d="M-44.34 840.58L101.92 509.51" stroke="#132e65" stroke-width="1.5"></path><path d="M93.72 407L93.72 407" stroke="#132e65" stroke-width="1.5"></path><path d="M93.72 407L101.92 509.51" stroke="#132e65" stroke-width="1.5"></path><path d="M101.92 509.51L101.92 509.51" stroke="#132e65" stroke-width="1.5"></path><path d="M101.92 509.51L216.64 519.66" stroke="#132e65" stroke-width="1.5"></path><path d="M92.55 855.42L92.55 855.42" stroke="#132e65" stroke-width="1.5"></path><path d="M92.55 855.42L259.29 801.9" stroke="#132e65" stroke-width="1.5"></path><path d="M92.55 855.42L252.58 704.14" stroke="#132e65" stroke-width="1.5"></path><path d="M92.55 855.42L-67.72 643.38" stroke="#132e65" stroke-width="1.5"></path><path d="M92.55 855.42L390.02 832.92" stroke="#132e65" stroke-width="1.5"></path><path d="M92.55 855.42L101.92 509.51" stroke="#132e65" stroke-width="1.5"></path><path d="M247.15 410.27L247.15 410.27" stroke="#132e65" stroke-width="1.5"></path><path d="M247.15 410.27L340.69 367.68" stroke="#132e65" stroke-width="1.5"></path><path d="M247.15 410.27L216.64 519.66" stroke="#132e65" stroke-width="1.5"></path><path d="M247.15 410.27L93.72 407" stroke="#132e65" stroke-width="1.5"></path><path d="M247.15 410.27L101.92 509.51" stroke="#132e65" stroke-width="1.5"></path><path d="M247.15 410.27L348 558.36" stroke="#132e65" stroke-width="1.5"></path><path d="M247.15 410.27L533.76 374.18" stroke="#132e65" stroke-width="1.5"></path><path d="M216.64 519.66L216.64 519.66" stroke="#132e65" stroke-width="1.5"></path><path d="M216.64 519.66L348 558.36" stroke="#132e65" stroke-width="1.5"></path><path d="M252.58 704.14L252.58 704.14" stroke="#132e65" stroke-width="1.5"></path><path d="M252.58 704.14L259.29 801.9" stroke="#132e65" stroke-width="1.5"></path><path d="M252.58 704.14L386.74 667.58" stroke="#132e65" stroke-width="1.5"></path><path d="M252.58 704.14L348 558.36" stroke="#132e65" stroke-width="1.5"></path><path d="M259.29 801.9L259.29 801.9" stroke="#132e65" stroke-width="1.5"></path><path d="M259.29 801.9L390.02 832.92" stroke="#132e65" stroke-width="1.5"></path><path d="M259.29 801.9L386.74 667.58" stroke="#132e65" stroke-width="1.5"></path><path d="M259.29 801.9L348 558.36" stroke="#132e65" stroke-width="1.5"></path><path d="M340.69 367.68L340.69 367.68" stroke="#132e65" stroke-width="1.5"></path><path d="M340.69 367.68L348 558.36" stroke="#132e65" stroke-width="1.5"></path><path d="M340.69 367.68L533.76 374.18" stroke="#132e65" stroke-width="1.5"></path><path d="M348 558.36L348 558.36" stroke="#132e65" stroke-width="1.5"></path><path d="M348 558.36L386.74 667.58" stroke="#132e65" stroke-width="1.5"></path><path d="M386.74 667.58L386.74 667.58" stroke="#132e65" stroke-width="1.5"></path><path d="M386.74 667.58L521.56 708.29" stroke="#132e65" stroke-width="1.5"></path><path d="M386.74 667.58L390.02 832.92" stroke="#132e65" stroke-width="1.5"></path><path d="M386.74 667.58L540.04 814.68" stroke="#132e65" stroke-width="1.5"></path><path d="M390.02 832.92L390.02 832.92" stroke="#132e65" stroke-width="1.5"></path><path d="M390.02 832.92L540.04 814.68" stroke="#132e65" stroke-width="1.5"></path><path d="M390.02 832.92L521.56 708.29" stroke="#132e65" stroke-width="1.5"></path><path d="M390.02 832.92L252.58 704.14" stroke="#132e65" stroke-width="1.5"></path><path d="M390.02 832.92L643.72 859.15" stroke="#132e65" stroke-width="1.5"></path><path d="M533.76 374.18L533.76 374.18" stroke="#132e65" stroke-width="1.5"></path><path d="M533.76 374.18L544.08 501.76" stroke="#132e65" stroke-width="1.5"></path><path d="M533.76 374.18L698.29 372.96" stroke="#132e65" stroke-width="1.5"></path><path d="M544.08 501.76L544.08 501.76" stroke="#132e65" stroke-width="1.5"></path><path d="M544.08 501.76L679 558.18" stroke="#132e65" stroke-width="1.5"></path><path d="M544.08 501.76L642.86 637.58" stroke="#132e65" stroke-width="1.5"></path><path d="M544.08 501.76L698.29 372.96" stroke="#132e65" stroke-width="1.5"></path><path d="M544.08 501.76L348 558.36" stroke="#132e65" stroke-width="1.5"></path><path d="M521.56 708.29L521.56 708.29" stroke="#132e65" stroke-width="1.5"></path><path d="M521.56 708.29L540.04 814.68" stroke="#132e65" stroke-width="1.5"></path><path d="M521.56 708.29L642.86 637.58" stroke="#132e65" stroke-width="1.5"></path><path d="M521.56 708.29L643.72 859.15" stroke="#132e65" stroke-width="1.5"></path><path d="M521.56 708.29L544.08 501.76" stroke="#132e65" stroke-width="1.5"></path><path d="M540.04 814.68L540.04 814.68" stroke="#132e65" stroke-width="1.5"></path><path d="M540.04 814.68L643.72 859.15" stroke="#132e65" stroke-width="1.5"></path><path d="M540.04 814.68L642.86 637.58" stroke="#132e65" stroke-width="1.5"></path><path d="M540.04 814.68L788.16 844.91" stroke="#132e65" stroke-width="1.5"></path><path d="M660.98 227.11L660.98 227.11" stroke="#132e65" stroke-width="1.5"></path><path d="M660.98 227.11L797.8 198.09" stroke="#132e65" stroke-width="1.5"></path><path d="M660.98 227.11L698.29 372.96" stroke="#132e65" stroke-width="1.5"></path><path d="M660.98 227.11L533.76 374.18" stroke="#132e65" stroke-width="1.5"></path><path d="M698.29 372.96L698.29 372.96" stroke="#132e65" stroke-width="1.5"></path><path d="M698.29 372.96L852.7 405.49" stroke="#132e65" stroke-width="1.5"></path><path d="M698.29 372.96L679 558.18" stroke="#132e65" stroke-width="1.5"></path><path d="M698.29 372.96L826.08 520.35" stroke="#132e65" stroke-width="1.5"></path><path d="M679 558.18L679 558.18" stroke="#132e65" stroke-width="1.5"></path><path d="M679 558.18L642.86 637.58" stroke="#132e65" stroke-width="1.5"></path><path d="M679 558.18L826.08 520.35" stroke="#132e65" stroke-width="1.5"></path><path d="M679 558.18L804.99 691.32" stroke="#132e65" stroke-width="1.5"></path><path d="M642.86 637.58L642.86 637.58" stroke="#132e65" stroke-width="1.5"></path><path d="M643.72 859.15L643.72 859.15" stroke="#132e65" stroke-width="1.5"></path><path d="M643.72 859.15L788.16 844.91" stroke="#132e65" stroke-width="1.5"></path><path d="M643.72 859.15L642.86 637.58" stroke="#132e65" stroke-width="1.5"></path><path d="M643.72 859.15L804.99 691.32" stroke="#132e65" stroke-width="1.5"></path><path d="M839.03 96.05L839.03 96.05" stroke="#132e65" stroke-width="1.5"></path><path d="M839.03 96.05L797.8 198.09" stroke="#132e65" stroke-width="1.5"></path><path d="M839.03 96.05L958.36 96.9" stroke="#132e65" stroke-width="1.5"></path><path d="M839.03 96.05L948.62 224.8" stroke="#132e65" stroke-width="1.5"></path><path d="M797.8 198.09L797.8 198.09" stroke="#132e65" stroke-width="1.5"></path><path d="M797.8 198.09L948.62 224.8" stroke="#132e65" stroke-width="1.5"></path><path d="M852.7 405.49L852.7 405.49" stroke="#132e65" stroke-width="1.5"></path><path d="M852.7 405.49L947.6 367.22" stroke="#132e65" stroke-width="1.5"></path><path d="M852.7 405.49L826.08 520.35" stroke="#132e65" stroke-width="1.5"></path><path d="M826.08 520.35L826.08 520.35" stroke="#132e65" stroke-width="1.5"></path><path d="M826.08 520.35L959.66 562.49" stroke="#132e65" stroke-width="1.5"></path><path d="M804.99 691.32L804.99 691.32" stroke="#132e65" stroke-width="1.5"></path><path d="M804.99 691.32L957.29 683.39" stroke="#132e65" stroke-width="1.5"></path><path d="M804.99 691.32L788.16 844.91" stroke="#132e65" stroke-width="1.5"></path><path d="M804.99 691.32L939.47 790.4" stroke="#132e65" stroke-width="1.5"></path><path d="M804.99 691.32L642.86 637.58" stroke="#132e65" stroke-width="1.5"></path><path d="M804.99 691.32L826.08 520.35" stroke="#132e65" stroke-width="1.5"></path><path d="M788.16 844.91L788.16 844.91" stroke="#132e65" stroke-width="1.5"></path><path d="M788.16 844.91L939.47 790.4" stroke="#132e65" stroke-width="1.5"></path><path d="M788.16 844.91L957.29 683.39" stroke="#132e65" stroke-width="1.5"></path><path d="M974.2 -86.95L974.2 -86.95" stroke="#132e65" stroke-width="1.5"></path><path d="M974.2 -86.95L1093.21 -56.45" stroke="#132e65" stroke-width="1.5"></path><path d="M974.2 -86.95L958.36 96.9" stroke="#132e65" stroke-width="1.5"></path><path d="M974.2 -86.95L1118.83 84.32" stroke="#132e65" stroke-width="1.5"></path><path d="M958.36 96.9L958.36 96.9" stroke="#132e65" stroke-width="1.5"></path><path d="M958.36 96.9L948.62 224.8" stroke="#132e65" stroke-width="1.5"></path><path d="M958.36 96.9L1118.83 84.32" stroke="#132e65" stroke-width="1.5"></path><path d="M958.36 96.9L797.8 198.09" stroke="#132e65" stroke-width="1.5"></path><path d="M948.62 224.8L948.62 224.8" stroke="#132e65" stroke-width="1.5"></path><path d="M948.62 224.8L947.6 367.22" stroke="#132e65" stroke-width="1.5"></path><path d="M948.62 224.8L1092.93 236.65" stroke="#132e65" stroke-width="1.5"></path><path d="M947.6 367.22L947.6 367.22" stroke="#132e65" stroke-width="1.5"></path><path d="M959.66 562.49L959.66 562.49" stroke="#132e65" stroke-width="1.5"></path><path d="M959.66 562.49L957.29 683.39" stroke="#132e65" stroke-width="1.5"></path><path d="M957.29 683.39L957.29 683.39" stroke="#132e65" stroke-width="1.5"></path><path d="M957.29 683.39L939.47 790.4" stroke="#132e65" stroke-width="1.5"></path><path d="M957.29 683.39L1156.3 680.27" stroke="#132e65" stroke-width="1.5"></path><path d="M957.29 683.39L1123.25 560.42" stroke="#132e65" stroke-width="1.5"></path><path d="M957.29 683.39L826.08 520.35" stroke="#132e65" stroke-width="1.5"></path><path d="M939.47 790.4L939.47 790.4" stroke="#132e65" stroke-width="1.5"></path><path d="M939.47 790.4L1118.95 825.03" stroke="#132e65" stroke-width="1.5"></path><path d="M939.47 790.4L959.66 562.49" stroke="#132e65" stroke-width="1.5"></path><path d="M939.47 790.4L1156.3 680.27" stroke="#132e65" stroke-width="1.5"></path><path d="M1093.21 -56.45L1093.21 -56.45" stroke="#132e65" stroke-width="1.5"></path><path d="M1093.21 -56.45L1118.83 84.32" stroke="#132e65" stroke-width="1.5"></path><path d="M1093.21 -56.45L1279.93 -104.11" stroke="#132e65" stroke-width="1.5"></path><path d="M1093.21 -56.45L1239.72 74" stroke="#132e65" stroke-width="1.5"></path><path d="M1093.21 -56.45L958.36 96.9" stroke="#132e65" stroke-width="1.5"></path><path d="M1093.21 -56.45L1092.93 236.65" stroke="#132e65" stroke-width="1.5"></path><path d="M1118.83 84.32L1118.83 84.32" stroke="#132e65" stroke-width="1.5"></path><path d="M1118.83 84.32L1239.72 74" stroke="#132e65" stroke-width="1.5"></path><path d="M1118.83 84.32L1092.93 236.65" stroke="#132e65" stroke-width="1.5"></path><path d="M1118.83 84.32L948.62 224.8" stroke="#132e65" stroke-width="1.5"></path><path d="M1092.93 236.65L1092.93 236.65" stroke="#132e65" stroke-width="1.5"></path><path d="M1092.93 236.65L1118.04 365.23" stroke="#132e65" stroke-width="1.5"></path><path d="M1118.04 365.23L1118.04 365.23" stroke="#132e65" stroke-width="1.5"></path><path d="M1118.04 365.23L1280.27 358.74" stroke="#132e65" stroke-width="1.5"></path><path d="M1118.04 365.23L947.6 367.22" stroke="#132e65" stroke-width="1.5"></path><path d="M1118.04 365.23L1123.25 560.42" stroke="#132e65" stroke-width="1.5"></path><path d="M1118.04 365.23L948.62 224.8" stroke="#132e65" stroke-width="1.5"></path><path d="M1118.04 365.23L1295.84 527.56" stroke="#132e65" stroke-width="1.5"></path><path d="M1123.25 560.42L1123.25 560.42" stroke="#132e65" stroke-width="1.5"></path><path d="M1123.25 560.42L1156.3 680.27" stroke="#132e65" stroke-width="1.5"></path><path d="M1156.3 680.27L1156.3 680.27" stroke="#132e65" stroke-width="1.5"></path><path d="M1156.3 680.27L1244.58 674.18" stroke="#132e65" stroke-width="1.5"></path><path d="M1118.95 825.03L1118.95 825.03" stroke="#132e65" stroke-width="1.5"></path><path d="M1118.95 825.03L1156.3 680.27" stroke="#132e65" stroke-width="1.5"></path><path d="M1279.93 -104.11L1279.93 -104.11" stroke="#132e65" stroke-width="1.5"></path><path d="M1279.93 -104.11L1411.53 -106.99" stroke="#132e65" stroke-width="1.5"></path><path d="M1279.93 -104.11L1239.72 74" stroke="#132e65" stroke-width="1.5"></path><path d="M1279.93 -104.11L1389.14 103.41" stroke="#132e65" stroke-width="1.5"></path><path d="M1239.72 74L1239.72 74" stroke="#132e65" stroke-width="1.5"></path><path d="M1239.72 74L1389.14 103.41" stroke="#132e65" stroke-width="1.5"></path><path d="M1280.27 358.74L1280.27 358.74" stroke="#132e65" stroke-width="1.5"></path><path d="M1280.27 358.74L1433.72 389.33" stroke="#132e65" stroke-width="1.5"></path><path d="M1295.84 527.56L1295.84 527.56" stroke="#132e65" stroke-width="1.5"></path><path d="M1295.84 527.56L1401.15 511.48" stroke="#132e65" stroke-width="1.5"></path><path d="M1295.84 527.56L1244.58 674.18" stroke="#132e65" stroke-width="1.5"></path><path d="M1295.84 527.56L1280.27 358.74" stroke="#132e65" stroke-width="1.5"></path><path d="M1244.58 674.18L1244.58 674.18" stroke="#132e65" stroke-width="1.5"></path><path d="M1244.58 674.18L1308.33 805.28" stroke="#132e65" stroke-width="1.5"></path><path d="M1244.58 674.18L1406.67 682.36" stroke="#132e65" stroke-width="1.5"></path><path d="M1244.58 674.18L1123.25 560.42" stroke="#132e65" stroke-width="1.5"></path><path d="M1308.33 805.28L1308.33 805.28" stroke="#132e65" stroke-width="1.5"></path><path d="M1308.33 805.28L1449.28 830.91" stroke="#132e65" stroke-width="1.5"></path><path d="M1308.33 805.28L1406.67 682.36" stroke="#132e65" stroke-width="1.5"></path><path d="M1308.33 805.28L1118.95 825.03" stroke="#132e65" stroke-width="1.5"></path><path d="M1308.33 805.28L1156.3 680.27" stroke="#132e65" stroke-width="1.5"></path><path d="M1411.53 -106.99L1411.53 -106.99" stroke="#132e65" stroke-width="1.5"></path><path d="M1411.53 -106.99L1586.57 -44.98" stroke="#132e65" stroke-width="1.5"></path><path d="M1389.14 103.41L1389.14 103.41" stroke="#132e65" stroke-width="1.5"></path><path d="M1389.14 103.41L1460.2 189.34" stroke="#132e65" stroke-width="1.5"></path><path d="M1389.14 103.41L1560.24 91.55" stroke="#132e65" stroke-width="1.5"></path><path d="M1389.14 103.41L1411.53 -106.99" stroke="#132e65" stroke-width="1.5"></path><path d="M1460.2 189.34L1460.2 189.34" stroke="#132e65" stroke-width="1.5"></path><path d="M1460.2 189.34L1583.98 201.92" stroke="#132e65" stroke-width="1.5"></path><path d="M1460.2 189.34L1560.24 91.55" stroke="#132e65" stroke-width="1.5"></path><path d="M1433.72 389.33L1433.72 389.33" stroke="#132e65" stroke-width="1.5"></path><path d="M1433.72 389.33L1401.15 511.48" stroke="#132e65" stroke-width="1.5"></path><path d="M1433.72 389.33L1598.84 377.92" stroke="#132e65" stroke-width="1.5"></path><path d="M1401.15 511.48L1401.15 511.48" stroke="#132e65" stroke-width="1.5"></path><path d="M1406.67 682.36L1406.67 682.36" stroke="#132e65" stroke-width="1.5"></path><path d="M1406.67 682.36L1449.28 830.91" stroke="#132e65" stroke-width="1.5"></path><path d="M1449.28 830.91L1449.28 830.91" stroke="#132e65" stroke-width="1.5"></path><path d="M1449.28 830.91L1574.89 860.74" stroke="#132e65" stroke-width="1.5"></path><path d="M1449.28 830.91L1575.45 657.41" stroke="#132e65" stroke-width="1.5"></path><path d="M1449.28 830.91L1244.58 674.18" stroke="#132e65" stroke-width="1.5"></path><path d="M1449.28 830.91L1401.15 511.48" stroke="#132e65" stroke-width="1.5"></path><path d="M1586.57 -44.98L1586.57 -44.98" stroke="#132e65" stroke-width="1.5"></path><path d="M1586.57 -44.98L1560.24 91.55" stroke="#132e65" stroke-width="1.5"></path><path d="M1586.57 -44.98L1583.98 201.92" stroke="#132e65" stroke-width="1.5"></path><path d="M1586.57 -44.98L1389.14 103.41" stroke="#132e65" stroke-width="1.5"></path><path d="M1560.24 91.55L1560.24 91.55" stroke="#132e65" stroke-width="1.5"></path><path d="M1560.24 91.55L1583.98 201.92" stroke="#132e65" stroke-width="1.5"></path><path d="M1583.98 201.92L1583.98 201.92" stroke="#132e65" stroke-width="1.5"></path><path d="M1583.98 201.92L1598.84 377.92" stroke="#132e65" stroke-width="1.5"></path><path d="M1598.84 377.92L1598.84 377.92" stroke="#132e65" stroke-width="1.5"></path><path d="M1598.84 377.92L1596.99 521.99" stroke="#132e65" stroke-width="1.5"></path><path d="M1598.84 377.92L1460.2 189.34" stroke="#132e65" stroke-width="1.5"></path><path d="M1598.84 377.92L1401.15 511.48" stroke="#132e65" stroke-width="1.5"></path><path d="M1598.84 377.92L1575.45 657.41" stroke="#132e65" stroke-width="1.5"></path><path d="M1596.99 521.99L1596.99 521.99" stroke="#132e65" stroke-width="1.5"></path><path d="M1596.99 521.99L1575.45 657.41" stroke="#132e65" stroke-width="1.5"></path><path d="M1596.99 521.99L1401.15 511.48" stroke="#132e65" stroke-width="1.5"></path><path d="M1596.99 521.99L1433.72 389.33" stroke="#132e65" stroke-width="1.5"></path><path d="M1596.99 521.99L1406.67 682.36" stroke="#132e65" stroke-width="1.5"></path><path d="M1575.45 657.41L1575.45 657.41" stroke="#132e65" stroke-width="1.5"></path><path d="M1575.45 657.41L1406.67 682.36" stroke="#132e65" stroke-width="1.5"></path><path d="M1575.45 657.41L1574.89 860.74" stroke="#132e65" stroke-width="1.5"></path><path d="M1574.89 860.74L1574.89 860.74" stroke="#132e65" stroke-width="1.5"></path><circle r="5" cx="-107.36" cy="385.2" fill="#132e65"></circle><circle r="5" cx="-67.53" cy="533.14" fill="#132e65"></circle><circle r="5" cx="-67.72" cy="643.38" fill="#132e65"></circle><circle r="5" cx="-44.34" cy="840.58" fill="#132e65"></circle><circle r="5" cx="93.72" cy="407" fill="#132e65"></circle><circle r="5" cx="101.92" cy="509.51" fill="#132e65"></circle><circle r="5" cx="92.55" cy="855.42" fill="#132e65"></circle><circle r="5" cx="247.15" cy="410.27" fill="#132e65"></circle><circle r="5" cx="216.64" cy="519.66" fill="#132e65"></circle><circle r="5" cx="252.58" cy="704.14" fill="#132e65"></circle><circle r="5" cx="259.29" cy="801.9" fill="#132e65"></circle><circle r="5" cx="340.69" cy="367.68" fill="#132e65"></circle><circle r="5" cx="348" cy="558.36" fill="#132e65"></circle><circle r="5" cx="386.74" cy="667.58" fill="#132e65"></circle><circle r="5" cx="390.02" cy="832.92" fill="#132e65"></circle><circle r="5" cx="533.76" cy="374.18" fill="#132e65"></circle><circle r="5" cx="544.08" cy="501.76" fill="#132e65"></circle><circle r="5" cx="521.56" cy="708.29" fill="#132e65"></circle><circle r="5" cx="540.04" cy="814.68" fill="#132e65"></circle><circle r="5" cx="660.98" cy="227.11" fill="#132e65"></circle><circle r="5" cx="698.29" cy="372.96" fill="#132e65"></circle><circle r="5" cx="679" cy="558.18" fill="#132e65"></circle><circle r="5" cx="642.86" cy="637.58" fill="#132e65"></circle><circle r="5" cx="643.72" cy="859.15" fill="#132e65"></circle><circle r="5" cx="839.03" cy="96.05" fill="#132e65"></circle><circle r="5" cx="797.8" cy="198.09" fill="#132e65"></circle><circle r="5" cx="852.7" cy="405.49" fill="#132e65"></circle><circle r="5" cx="826.08" cy="520.35" fill="#132e65"></circle><circle r="5" cx="804.99" cy="691.32" fill="#132e65"></circle><circle r="5" cx="788.16" cy="844.91" fill="#132e65"></circle><circle r="5" cx="974.2" cy="-86.95" fill="#132e65"></circle><circle r="5" cx="958.36" cy="96.9" fill="#132e65"></circle><circle r="5" cx="948.62" cy="224.8" fill="#132e65"></circle><circle r="5" cx="947.6" cy="367.22" fill="#132e65"></circle><circle r="5" cx="959.66" cy="562.49" fill="#132e65"></circle><circle r="5" cx="957.29" cy="683.39" fill="#132e65"></circle><circle r="5" cx="939.47" cy="790.4" fill="#132e65"></circle><circle r="5" cx="1093.21" cy="-56.45" fill="#132e65"></circle><circle r="5" cx="1118.83" cy="84.32" fill="#132e65"></circle><circle r="5" cx="1092.93" cy="236.65" fill="#132e65"></circle><circle r="5" cx="1118.04" cy="365.23" fill="#132e65"></circle><circle r="5" cx="1123.25" cy="560.42" fill="#132e65"></circle><circle r="5" cx="1156.3" cy="680.27" fill="#132e65"></circle><circle r="5" cx="1118.95" cy="825.03" fill="#132e65"></circle><circle r="5" cx="1279.93" cy="-104.11" fill="#132e65"></circle><circle r="5" cx="1239.72" cy="74" fill="#132e65"></circle><circle r="5" cx="1280.27" cy="358.74" fill="#132e65"></circle><circle r="5" cx="1295.84" cy="527.56" fill="#132e65"></circle><circle r="5" cx="1244.58" cy="674.18" fill="#132e65"></circle><circle r="5" cx="1308.33" cy="805.28" fill="#132e65"></circle><circle r="5" cx="1411.53" cy="-106.99" fill="#132e65"></circle><circle r="5" cx="1389.14" cy="103.41" fill="#132e65"></circle><circle r="5" cx="1460.2" cy="189.34" fill="#132e65"></circle><circle r="5" cx="1433.72" cy="389.33" fill="#132e65"></circle><circle r="5" cx="1401.15" cy="511.48" fill="#132e65"></circle><circle r="5" cx="1406.67" cy="682.36" fill="#132e65"></circle><circle r="5" cx="1449.28" cy="830.91" fill="#132e65"></circle><circle r="5" cx="1586.57" cy="-44.98" fill="#132e65"></circle><circle r="5" cx="1560.24" cy="91.55" fill="#132e65"></circle><circle r="5" cx="1583.98" cy="201.92" fill="#132e65"></circle><circle r="5" cx="1598.84" cy="377.92" fill="#132e65"></circle><circle r="5" cx="1596.99" cy="521.99" fill="#132e65"></circle><circle r="5" cx="1575.45" cy="657.41" fill="#132e65"></circle><circle r="5" cx="1574.89" cy="860.74" fill="#132e65"></circle><path d="M488.44 532.16L488.44 532.16" stroke="hsl(228.5, 77.2%, 51.5%)" stroke-width="1.5"></path><path d="M488.44 532.16L391.41 522.74" stroke="hsl(228.5, 77.2%, 51.5%)" stroke-width="1.5"></path><path d="M488.44 532.16L546.05 693.51" stroke="hsl(228.5, 77.2%, 51.5%)" stroke-width="1.5"></path><path d="M488.44 532.16L673.43 521.12" stroke="hsl(228.5, 77.2%, 51.5%)" stroke-width="1.5"></path><path d="M488.44 532.16L355.5 694.26" stroke="hsl(228.5, 77.2%, 51.5%)" stroke-width="1.5"></path><path d="M488.44 532.16L658.03 666.88" stroke="hsl(228.5, 77.2%, 51.5%)" stroke-width="1.5"></path><path d="M488.44 532.16L691.88 393.75" stroke="hsl(228.5, 77.2%, 51.5%)" stroke-width="1.5"></path><path d="M678.47 841.99L678.47 841.99" stroke="hsl(228.5, 77.2%, 51.5%)" stroke-width="1.5"></path><path d="M678.47 841.99L817.66 818.16" stroke="hsl(228.5, 77.2%, 51.5%)" stroke-width="1.5"></path><path d="M817.66 818.16L817.66 818.16" stroke="hsl(228.5, 77.2%, 51.5%)" stroke-width="1.5"></path><path d="M817.66 818.16L939.29 790.4" stroke="hsl(228.5, 77.2%, 51.5%)" stroke-width="1.5"></path><path d="M817.66 818.16L799.65 645.84" stroke="hsl(228.5, 77.2%, 51.5%)" stroke-width="1.5"></path><path d="M817.66 818.16L658.03 666.88" stroke="hsl(228.5, 77.2%, 51.5%)" stroke-width="1.5"></path><path d="M1136.8 562.02L1136.8 562.02" stroke="hsl(228.5, 77.2%, 51.5%)" stroke-width="1.5"></path><path d="M1136.8 562.02L1091.62 695.99" stroke="hsl(228.5, 77.2%, 51.5%)" stroke-width="1.5"></path><path d="M1136.8 562.02L997.94 524.06" stroke="hsl(228.5, 77.2%, 51.5%)" stroke-width="1.5"></path><path d="M1136.8 562.02L1285.63 524.39" stroke="hsl(228.5, 77.2%, 51.5%)" stroke-width="1.5"></path><path d="M1136.8 562.02L972.06 657.35" stroke="hsl(228.5, 77.2%, 51.5%)" stroke-width="1.5"></path><path d="M1136.8 562.02L1292.82 671.37" stroke="hsl(228.5, 77.2%, 51.5%)" stroke-width="1.5"></path><path d="M1125.78 850.96L1125.78 850.96" stroke="hsl(228.5, 77.2%, 51.5%)" stroke-width="1.5"></path><path d="M1125.78 850.96L1091.62 695.99" stroke="hsl(228.5, 77.2%, 51.5%)" stroke-width="1.5"></path><path d="M1125.78 850.96L1306.13 812.99" stroke="hsl(228.5, 77.2%, 51.5%)" stroke-width="1.5"></path><path d="M1125.78 850.96L939.29 790.4" stroke="hsl(228.5, 77.2%, 51.5%)" stroke-width="1.5"></path><path d="M1125.78 850.96L1292.82 671.37" stroke="hsl(228.5, 77.2%, 51.5%)" stroke-width="1.5"></path><path d="M1282.8 58.14L1282.8 58.14" stroke="hsl(228.5, 77.2%, 51.5%)" stroke-width="1.5"></path><path d="M1282.8 58.14L1238 -80.89" stroke="hsl(228.5, 77.2%, 51.5%)" stroke-width="1.5"></path><path d="M1282.8 58.14L1440.11 58.41" stroke="hsl(228.5, 77.2%, 51.5%)" stroke-width="1.5"></path><path d="M1282.8 58.14L1258.83 217.5" stroke="hsl(228.5, 77.2%, 51.5%)" stroke-width="1.5"></path><path d="M1282.8 58.14L1155.55 -48.05" stroke="hsl(228.5, 77.2%, 51.5%)" stroke-width="1.5"></path><path d="M1282.8 58.14L1400.34 190.85" stroke="hsl(228.5, 77.2%, 51.5%)" stroke-width="1.5"></path><path d="M1292.82 671.37L1292.82 671.37" stroke="hsl(228.5, 77.2%, 51.5%)" stroke-width="1.5"></path><path d="M1292.82 671.37L1414.95 652.82" stroke="hsl(228.5, 77.2%, 51.5%)" stroke-width="1.5"></path><path d="M1292.82 671.37L1306.13 812.99" stroke="hsl(228.5, 77.2%, 51.5%)" stroke-width="1.5"></path><path d="M1292.82 671.37L1285.63 524.39" stroke="hsl(228.5, 77.2%, 51.5%)" stroke-width="1.5"></path><path d="M1583.85 847.53L1583.85 847.53" stroke="hsl(228.5, 77.2%, 51.5%)" stroke-width="1.5"></path><path d="M1583.85 847.53L1460.12 819.08" stroke="hsl(228.5, 77.2%, 51.5%)" stroke-width="1.5"></path><path d="M1583.85 847.53L1414.95 652.82" stroke="hsl(228.5, 77.2%, 51.5%)" stroke-width="1.5"></path><path d="M1583.85 847.53L1306.13 812.99" stroke="hsl(228.5, 77.2%, 51.5%)" stroke-width="1.5"></path><path d="M1583.85 847.53L1590.97 544.84" stroke="hsl(228.5, 77.2%, 51.5%)" stroke-width="1.5"></path><path d="M1583.85 847.53L1460.07 555.76" stroke="hsl(228.5, 77.2%, 51.5%)" stroke-width="1.5"></path><path d="M1583.85 847.53L1292.82 671.37" stroke="hsl(228.5, 77.2%, 51.5%)" stroke-width="1.5"></path><path d="M-43.15 686.47L-43.15 686.47" stroke="hsl(228.5, 77.2%, 51.5%)" stroke-width="1.5"></path><path d="M-43.15 686.47L78.81 690.42" stroke="hsl(228.5, 77.2%, 51.5%)" stroke-width="1.5"></path><path d="M-43.15 686.47L49.77 789.09" stroke="hsl(228.5, 77.2%, 51.5%)" stroke-width="1.5"></path><path d="M-43.15 686.47L84.67 535.31" stroke="hsl(228.5, 77.2%, 51.5%)" stroke-width="1.5"></path><path d="M-43.15 686.47L251.94 684.59" stroke="hsl(228.5, 77.2%, 51.5%)" stroke-width="1.5"></path><path d="M-43.15 686.47L236.13 515.56" stroke="hsl(228.5, 77.2%, 51.5%)" stroke-width="1.5"></path><path d="M-43.15 686.47L260.32 848.46" stroke="hsl(228.5, 77.2%, 51.5%)" stroke-width="1.5"></path><path d="M84.67 535.31L84.67 535.31" stroke="hsl(228.5, 77.2%, 51.5%)" stroke-width="1.5"></path><path d="M84.67 535.31L236.13 515.56" stroke="hsl(228.5, 77.2%, 51.5%)" stroke-width="1.5"></path><path d="M84.67 535.31L78.81 690.42" stroke="hsl(228.5, 77.2%, 51.5%)" stroke-width="1.5"></path><path d="M84.67 535.31L251.94 684.59" stroke="hsl(228.5, 77.2%, 51.5%)" stroke-width="1.5"></path><path d="M84.67 535.31L49.77 789.09" stroke="hsl(228.5, 77.2%, 51.5%)" stroke-width="1.5"></path><path d="M84.67 535.31L391.41 522.74" stroke="hsl(228.5, 77.2%, 51.5%)" stroke-width="1.5"></path><path d="M78.81 690.42L78.81 690.42" stroke="hsl(228.5, 77.2%, 51.5%)" stroke-width="1.5"></path><path d="M78.81 690.42L49.77 789.09" stroke="hsl(228.5, 77.2%, 51.5%)" stroke-width="1.5"></path><path d="M78.81 690.42L251.94 684.59" stroke="hsl(228.5, 77.2%, 51.5%)" stroke-width="1.5"></path><path d="M78.81 690.42L236.13 515.56" stroke="hsl(228.5, 77.2%, 51.5%)" stroke-width="1.5"></path><path d="M78.81 690.42L260.32 848.46" stroke="hsl(228.5, 77.2%, 51.5%)" stroke-width="1.5"></path><path d="M49.77 789.09L49.77 789.09" stroke="hsl(228.5, 77.2%, 51.5%)" stroke-width="1.5"></path><path d="M49.77 789.09L260.32 848.46" stroke="hsl(228.5, 77.2%, 51.5%)" stroke-width="1.5"></path><path d="M49.77 789.09L251.94 684.59" stroke="hsl(228.5, 77.2%, 51.5%)" stroke-width="1.5"></path><path d="M49.77 789.09L363.75 821.62" stroke="hsl(228.5, 77.2%, 51.5%)" stroke-width="1.5"></path><path d="M236.13 515.56L236.13 515.56" stroke="hsl(228.5, 77.2%, 51.5%)" stroke-width="1.5"></path><path d="M236.13 515.56L391.41 522.74" stroke="hsl(228.5, 77.2%, 51.5%)" stroke-width="1.5"></path><path d="M236.13 515.56L251.94 684.59" stroke="hsl(228.5, 77.2%, 51.5%)" stroke-width="1.5"></path><path d="M236.13 515.56L355.5 694.26" stroke="hsl(228.5, 77.2%, 51.5%)" stroke-width="1.5"></path><path d="M251.94 684.59L251.94 684.59" stroke="hsl(228.5, 77.2%, 51.5%)" stroke-width="1.5"></path><path d="M251.94 684.59L355.5 694.26" stroke="hsl(228.5, 77.2%, 51.5%)" stroke-width="1.5"></path><path d="M251.94 684.59L260.32 848.46" stroke="hsl(228.5, 77.2%, 51.5%)" stroke-width="1.5"></path><path d="M260.32 848.46L260.32 848.46" stroke="hsl(228.5, 77.2%, 51.5%)" stroke-width="1.5"></path><path d="M260.32 848.46L363.75 821.62" stroke="hsl(228.5, 77.2%, 51.5%)" stroke-width="1.5"></path><path d="M260.32 848.46L355.5 694.26" stroke="hsl(228.5, 77.2%, 51.5%)" stroke-width="1.5"></path><path d="M391.41 522.74L391.41 522.74" stroke="hsl(228.5, 77.2%, 51.5%)" stroke-width="1.5"></path><path d="M391.41 522.74L355.5 694.26" stroke="hsl(228.5, 77.2%, 51.5%)" stroke-width="1.5"></path><path d="M355.5 694.26L355.5 694.26" stroke="hsl(228.5, 77.2%, 51.5%)" stroke-width="1.5"></path><path d="M355.5 694.26L363.75 821.62" stroke="hsl(228.5, 77.2%, 51.5%)" stroke-width="1.5"></path><path d="M363.75 821.62L363.75 821.62" stroke="hsl(228.5, 77.2%, 51.5%)" stroke-width="1.5"></path><path d="M363.75 821.62L533.09 788.08" stroke="hsl(228.5, 77.2%, 51.5%)" stroke-width="1.5"></path><path d="M363.75 821.62L251.94 684.59" stroke="hsl(228.5, 77.2%, 51.5%)" stroke-width="1.5"></path><path d="M546.05 693.51L546.05 693.51" stroke="hsl(228.5, 77.2%, 51.5%)" stroke-width="1.5"></path><path d="M546.05 693.51L533.09 788.08" stroke="hsl(228.5, 77.2%, 51.5%)" stroke-width="1.5"></path><path d="M546.05 693.51L658.03 666.88" stroke="hsl(228.5, 77.2%, 51.5%)" stroke-width="1.5"></path><path d="M533.09 788.08L533.09 788.08" stroke="hsl(228.5, 77.2%, 51.5%)" stroke-width="1.5"></path><path d="M533.09 788.08L678.47 841.99" stroke="hsl(228.5, 77.2%, 51.5%)" stroke-width="1.5"></path><path d="M533.09 788.08L658.03 666.88" stroke="hsl(228.5, 77.2%, 51.5%)" stroke-width="1.5"></path><path d="M533.09 788.08L355.5 694.26" stroke="hsl(228.5, 77.2%, 51.5%)" stroke-width="1.5"></path><path d="M691.88 393.75L691.88 393.75" stroke="hsl(228.5, 77.2%, 51.5%)" stroke-width="1.5"></path><path d="M691.88 393.75L673.43 521.12" stroke="hsl(228.5, 77.2%, 51.5%)" stroke-width="1.5"></path><path d="M691.88 393.75L835.81 411.16" stroke="hsl(228.5, 77.2%, 51.5%)" stroke-width="1.5"></path><path d="M691.88 393.75L793.24 561.08" stroke="hsl(228.5, 77.2%, 51.5%)" stroke-width="1.5"></path><path d="M691.88 393.75L799.65 645.84" stroke="hsl(228.5, 77.2%, 51.5%)" stroke-width="1.5"></path><path d="M673.43 521.12L673.43 521.12" stroke="hsl(228.5, 77.2%, 51.5%)" stroke-width="1.5"></path><path d="M673.43 521.12L793.24 561.08" stroke="hsl(228.5, 77.2%, 51.5%)" stroke-width="1.5"></path><path d="M673.43 521.12L658.03 666.88" stroke="hsl(228.5, 77.2%, 51.5%)" stroke-width="1.5"></path><path d="M673.43 521.12L799.65 645.84" stroke="hsl(228.5, 77.2%, 51.5%)" stroke-width="1.5"></path><path d="M658.03 666.88L658.03 666.88" stroke="hsl(228.5, 77.2%, 51.5%)" stroke-width="1.5"></path><path d="M658.03 666.88L799.65 645.84" stroke="hsl(228.5, 77.2%, 51.5%)" stroke-width="1.5"></path><path d="M835.81 411.16L835.81 411.16" stroke="hsl(228.5, 77.2%, 51.5%)" stroke-width="1.5"></path><path d="M835.81 411.16L793.24 561.08" stroke="hsl(228.5, 77.2%, 51.5%)" stroke-width="1.5"></path><path d="M793.24 561.08L793.24 561.08" stroke="hsl(228.5, 77.2%, 51.5%)" stroke-width="1.5"></path><path d="M793.24 561.08L799.65 645.84" stroke="hsl(228.5, 77.2%, 51.5%)" stroke-width="1.5"></path><path d="M793.24 561.08L658.03 666.88" stroke="hsl(228.5, 77.2%, 51.5%)" stroke-width="1.5"></path><path d="M799.65 645.84L799.65 645.84" stroke="hsl(228.5, 77.2%, 51.5%)" stroke-width="1.5"></path><path d="M799.65 645.84L972.06 657.35" stroke="hsl(228.5, 77.2%, 51.5%)" stroke-width="1.5"></path><path d="M799.65 645.84L939.29 790.4" stroke="hsl(228.5, 77.2%, 51.5%)" stroke-width="1.5"></path><path d="M1011.18 395.74L1011.18 395.74" stroke="hsl(228.5, 77.2%, 51.5%)" stroke-width="1.5"></path><path d="M1011.18 395.74L1119.79 368.83" stroke="hsl(228.5, 77.2%, 51.5%)" stroke-width="1.5"></path><path d="M1011.18 395.74L997.94 524.06" stroke="hsl(228.5, 77.2%, 51.5%)" stroke-width="1.5"></path><path d="M1011.18 395.74L835.81 411.16" stroke="hsl(228.5, 77.2%, 51.5%)" stroke-width="1.5"></path><path d="M1011.18 395.74L1091.8 222.39" stroke="hsl(228.5, 77.2%, 51.5%)" stroke-width="1.5"></path><path d="M997.94 524.06L997.94 524.06" stroke="hsl(228.5, 77.2%, 51.5%)" stroke-width="1.5"></path><path d="M997.94 524.06L972.06 657.35" stroke="hsl(228.5, 77.2%, 51.5%)" stroke-width="1.5"></path><path d="M997.94 524.06L1091.62 695.99" stroke="hsl(228.5, 77.2%, 51.5%)" stroke-width="1.5"></path><path d="M997.94 524.06L1119.79 368.83" stroke="hsl(228.5, 77.2%, 51.5%)" stroke-width="1.5"></path><path d="M997.94 524.06L835.81 411.16" stroke="hsl(228.5, 77.2%, 51.5%)" stroke-width="1.5"></path><path d="M972.06 657.35L972.06 657.35" stroke="hsl(228.5, 77.2%, 51.5%)" stroke-width="1.5"></path><path d="M972.06 657.35L1091.62 695.99" stroke="hsl(228.5, 77.2%, 51.5%)" stroke-width="1.5"></path><path d="M972.06 657.35L939.29 790.4" stroke="hsl(228.5, 77.2%, 51.5%)" stroke-width="1.5"></path><path d="M939.29 790.4L939.29 790.4" stroke="hsl(228.5, 77.2%, 51.5%)" stroke-width="1.5"></path><path d="M939.29 790.4L1091.62 695.99" stroke="hsl(228.5, 77.2%, 51.5%)" stroke-width="1.5"></path><path d="M1155.55 -48.05L1155.55 -48.05" stroke="hsl(228.5, 77.2%, 51.5%)" stroke-width="1.5"></path><path d="M1155.55 -48.05L1238 -80.89" stroke="hsl(228.5, 77.2%, 51.5%)" stroke-width="1.5"></path><path d="M1088.04 105.57L1088.04 105.57" stroke="hsl(228.5, 77.2%, 51.5%)" stroke-width="1.5"></path><path d="M1088.04 105.57L1091.8 222.39" stroke="hsl(228.5, 77.2%, 51.5%)" stroke-width="1.5"></path><path d="M1088.04 105.57L1155.55 -48.05" stroke="hsl(228.5, 77.2%, 51.5%)" stroke-width="1.5"></path><path d="M1088.04 105.57L1282.8 58.14" stroke="hsl(228.5, 77.2%, 51.5%)" stroke-width="1.5"></path><path d="M1088.04 105.57L1258.83 217.5" stroke="hsl(228.5, 77.2%, 51.5%)" stroke-width="1.5"></path><path d="M1091.8 222.39L1091.8 222.39" stroke="hsl(228.5, 77.2%, 51.5%)" stroke-width="1.5"></path><path d="M1119.79 368.83L1119.79 368.83" stroke="hsl(228.5, 77.2%, 51.5%)" stroke-width="1.5"></path><path d="M1119.79 368.83L1091.8 222.39" stroke="hsl(228.5, 77.2%, 51.5%)" stroke-width="1.5"></path><path d="M1119.79 368.83L1301.88 357.13" stroke="hsl(228.5, 77.2%, 51.5%)" stroke-width="1.5"></path><path d="M1119.79 368.83L1136.8 562.02" stroke="hsl(228.5, 77.2%, 51.5%)" stroke-width="1.5"></path><path d="M1091.62 695.99L1091.62 695.99" stroke="hsl(228.5, 77.2%, 51.5%)" stroke-width="1.5"></path><path d="M1238 -80.89L1238 -80.89" stroke="hsl(228.5, 77.2%, 51.5%)" stroke-width="1.5"></path><path d="M1238 -80.89L1443.56 -79.88" stroke="hsl(228.5, 77.2%, 51.5%)" stroke-width="1.5"></path><path d="M1238 -80.89L1088.04 105.57" stroke="hsl(228.5, 77.2%, 51.5%)" stroke-width="1.5"></path><path d="M1238 -80.89L1440.11 58.41" stroke="hsl(228.5, 77.2%, 51.5%)" stroke-width="1.5"></path><path d="M1238 -80.89L1258.83 217.5" stroke="hsl(228.5, 77.2%, 51.5%)" stroke-width="1.5"></path><path d="M1258.83 217.5L1258.83 217.5" stroke="hsl(228.5, 77.2%, 51.5%)" stroke-width="1.5"></path><path d="M1258.83 217.5L1400.34 190.85" stroke="hsl(228.5, 77.2%, 51.5%)" stroke-width="1.5"></path><path d="M1258.83 217.5L1301.88 357.13" stroke="hsl(228.5, 77.2%, 51.5%)" stroke-width="1.5"></path><path d="M1301.88 357.13L1301.88 357.13" stroke="hsl(228.5, 77.2%, 51.5%)" stroke-width="1.5"></path><path d="M1301.88 357.13L1417.38 343.06" stroke="hsl(228.5, 77.2%, 51.5%)" stroke-width="1.5"></path><path d="M1301.88 357.13L1285.63 524.39" stroke="hsl(228.5, 77.2%, 51.5%)" stroke-width="1.5"></path><path d="M1301.88 357.13L1400.34 190.85" stroke="hsl(228.5, 77.2%, 51.5%)" stroke-width="1.5"></path><path d="M1301.88 357.13L1091.8 222.39" stroke="hsl(228.5, 77.2%, 51.5%)" stroke-width="1.5"></path><path d="M1285.63 524.39L1285.63 524.39" stroke="hsl(228.5, 77.2%, 51.5%)" stroke-width="1.5"></path><path d="M1285.63 524.39L1460.07 555.76" stroke="hsl(228.5, 77.2%, 51.5%)" stroke-width="1.5"></path><path d="M1285.63 524.39L1414.95 652.82" stroke="hsl(228.5, 77.2%, 51.5%)" stroke-width="1.5"></path><path d="M1306.13 812.99L1306.13 812.99" stroke="hsl(228.5, 77.2%, 51.5%)" stroke-width="1.5"></path><path d="M1306.13 812.99L1460.12 819.08" stroke="hsl(228.5, 77.2%, 51.5%)" stroke-width="1.5"></path><path d="M1443.56 -79.88L1443.56 -79.88" stroke="hsl(228.5, 77.2%, 51.5%)" stroke-width="1.5"></path><path d="M1443.56 -79.88L1540.72 -83.04" stroke="hsl(228.5, 77.2%, 51.5%)" stroke-width="1.5"></path><path d="M1443.56 -79.88L1440.11 58.41" stroke="hsl(228.5, 77.2%, 51.5%)" stroke-width="1.5"></path><path d="M1440.11 58.41L1440.11 58.41" stroke="hsl(228.5, 77.2%, 51.5%)" stroke-width="1.5"></path><path d="M1440.11 58.41L1400.34 190.85" stroke="hsl(228.5, 77.2%, 51.5%)" stroke-width="1.5"></path><path d="M1440.11 58.41L1584.53 68.26" stroke="hsl(228.5, 77.2%, 51.5%)" stroke-width="1.5"></path><path d="M1440.11 58.41L1540.72 -83.04" stroke="hsl(228.5, 77.2%, 51.5%)" stroke-width="1.5"></path><path d="M1400.34 190.85L1400.34 190.85" stroke="hsl(228.5, 77.2%, 51.5%)" stroke-width="1.5"></path><path d="M1417.38 343.06L1417.38 343.06" stroke="hsl(228.5, 77.2%, 51.5%)" stroke-width="1.5"></path><path d="M1417.38 343.06L1556.53 343.35" stroke="hsl(228.5, 77.2%, 51.5%)" stroke-width="1.5"></path><path d="M1460.07 555.76L1460.07 555.76" stroke="hsl(228.5, 77.2%, 51.5%)" stroke-width="1.5"></path><path d="M1460.07 555.76L1414.95 652.82" stroke="hsl(228.5, 77.2%, 51.5%)" stroke-width="1.5"></path><path d="M1460.07 555.76L1590.97 544.84" stroke="hsl(228.5, 77.2%, 51.5%)" stroke-width="1.5"></path><path d="M1460.07 555.76L1292.82 671.37" stroke="hsl(228.5, 77.2%, 51.5%)" stroke-width="1.5"></path><path d="M1460.07 555.76L1417.38 343.06" stroke="hsl(228.5, 77.2%, 51.5%)" stroke-width="1.5"></path><path d="M1460.07 555.76L1556.53 343.35" stroke="hsl(228.5, 77.2%, 51.5%)" stroke-width="1.5"></path><path d="M1414.95 652.82L1414.95 652.82" stroke="hsl(228.5, 77.2%, 51.5%)" stroke-width="1.5"></path><path d="M1414.95 652.82L1460.12 819.08" stroke="hsl(228.5, 77.2%, 51.5%)" stroke-width="1.5"></path><path d="M1460.12 819.08L1460.12 819.08" stroke="hsl(228.5, 77.2%, 51.5%)" stroke-width="1.5"></path><path d="M1540.72 -83.04L1540.72 -83.04" stroke="hsl(228.5, 77.2%, 51.5%)" stroke-width="1.5"></path><path d="M1540.72 -83.04L1584.53 68.26" stroke="hsl(228.5, 77.2%, 51.5%)" stroke-width="1.5"></path><path d="M1540.72 -83.04L1600.56 196.38" stroke="hsl(228.5, 77.2%, 51.5%)" stroke-width="1.5"></path><path d="M1540.72 -83.04L1282.8 58.14" stroke="hsl(228.5, 77.2%, 51.5%)" stroke-width="1.5"></path><path d="M1540.72 -83.04L1238 -80.89" stroke="hsl(228.5, 77.2%, 51.5%)" stroke-width="1.5"></path><path d="M1584.53 68.26L1584.53 68.26" stroke="hsl(228.5, 77.2%, 51.5%)" stroke-width="1.5"></path><path d="M1584.53 68.26L1600.56 196.38" stroke="hsl(228.5, 77.2%, 51.5%)" stroke-width="1.5"></path><path d="M1600.56 196.38L1600.56 196.38" stroke="hsl(228.5, 77.2%, 51.5%)" stroke-width="1.5"></path><path d="M1600.56 196.38L1556.53 343.35" stroke="hsl(228.5, 77.2%, 51.5%)" stroke-width="1.5"></path><path d="M1600.56 196.38L1400.34 190.85" stroke="hsl(228.5, 77.2%, 51.5%)" stroke-width="1.5"></path><path d="M1600.56 196.38L1440.11 58.41" stroke="hsl(228.5, 77.2%, 51.5%)" stroke-width="1.5"></path><path d="M1600.56 196.38L1417.38 343.06" stroke="hsl(228.5, 77.2%, 51.5%)" stroke-width="1.5"></path><path d="M1556.53 343.35L1556.53 343.35" stroke="hsl(228.5, 77.2%, 51.5%)" stroke-width="1.5"></path><path d="M1556.53 343.35L1590.97 544.84" stroke="hsl(228.5, 77.2%, 51.5%)" stroke-width="1.5"></path><path d="M1556.53 343.35L1400.34 190.85" stroke="hsl(228.5, 77.2%, 51.5%)" stroke-width="1.5"></path><path d="M1556.53 343.35L1301.88 357.13" stroke="hsl(228.5, 77.2%, 51.5%)" stroke-width="1.5"></path><path d="M1590.97 544.84L1590.97 544.84" stroke="hsl(228.5, 77.2%, 51.5%)" stroke-width="1.5"></path><circle r="25" cx="488.44" cy="532.16" fill="url(&quot;#SvgjsRadialGradient1001&quot;)"></circle><circle r="25" cx="678.47" cy="841.99" fill="url(&quot;#SvgjsRadialGradient1001&quot;)"></circle><circle r="25" cx="817.66" cy="818.16" fill="url(&quot;#SvgjsRadialGradient1001&quot;)"></circle><circle r="25" cx="1136.8" cy="562.02" fill="url(&quot;#SvgjsRadialGradient1001&quot;)"></circle><circle r="25" cx="1125.78" cy="850.96" fill="url(&quot;#SvgjsRadialGradient1001&quot;)"></circle><circle r="25" cx="1282.8" cy="58.14" fill="url(&quot;#SvgjsRadialGradient1001&quot;)"></circle><circle r="25" cx="1292.82" cy="671.37" fill="url(&quot;#SvgjsRadialGradient1001&quot;)"></circle><circle r="25" cx="1583.85" cy="847.53" fill="url(&quot;#SvgjsRadialGradient1001&quot;)"></circle><circle r="5" cx="-43.15" cy="686.47" fill="#8b9ad9"></circle><circle r="5" cx="84.67" cy="535.31" fill="#8b9ad9"></circle><circle r="5" cx="78.81" cy="690.42" fill="#8b9ad9"></circle><circle r="5" cx="49.77" cy="789.09" fill="#8b9ad9"></circle><circle r="5" cx="236.13" cy="515.56" fill="#8b9ad9"></circle><circle r="5" cx="251.94" cy="684.59" fill="#8b9ad9"></circle><circle r="5" cx="260.32" cy="848.46" fill="#8b9ad9"></circle><circle r="5" cx="391.41" cy="522.74" fill="#8b9ad9"></circle><circle r="5" cx="355.5" cy="694.26" fill="#8b9ad9"></circle><circle r="5" cx="363.75" cy="821.62" fill="#8b9ad9"></circle><circle r="5" cx="546.05" cy="693.51" fill="#8b9ad9"></circle><circle r="5" cx="533.09" cy="788.08" fill="#8b9ad9"></circle><circle r="5" cx="691.88" cy="393.75" fill="#8b9ad9"></circle><circle r="5" cx="673.43" cy="521.12" fill="#8b9ad9"></circle><circle r="5" cx="658.03" cy="666.88" fill="#8b9ad9"></circle><circle r="5" cx="835.81" cy="411.16" fill="#8b9ad9"></circle><circle r="5" cx="793.24" cy="561.08" fill="#8b9ad9"></circle><circle r="5" cx="799.65" cy="645.84" fill="#8b9ad9"></circle><circle r="5" cx="1011.18" cy="395.74" fill="#8b9ad9"></circle><circle r="5" cx="997.94" cy="524.06" fill="#8b9ad9"></circle><circle r="5" cx="972.06" cy="657.35" fill="#8b9ad9"></circle><circle r="5" cx="939.29" cy="790.4" fill="#8b9ad9"></circle><circle r="5" cx="1155.55" cy="-48.05" fill="#8b9ad9"></circle><circle r="5" cx="1088.04" cy="105.57" fill="#8b9ad9"></circle><circle r="5" cx="1091.8" cy="222.39" fill="#8b9ad9"></circle><circle r="5" cx="1119.79" cy="368.83" fill="#8b9ad9"></circle><circle r="5" cx="1091.62" cy="695.99" fill="#8b9ad9"></circle><circle r="5" cx="1238" cy="-80.89" fill="#8b9ad9"></circle><circle r="5" cx="1258.83" cy="217.5" fill="#8b9ad9"></circle><circle r="5" cx="1301.88" cy="357.13" fill="#8b9ad9"></circle><circle r="5" cx="1285.63" cy="524.39" fill="#8b9ad9"></circle><circle r="5" cx="1306.13" cy="812.99" fill="#8b9ad9"></circle><circle r="5" cx="1443.56" cy="-79.88" fill="#8b9ad9"></circle><circle r="5" cx="1440.11" cy="58.41" fill="#8b9ad9"></circle><circle r="5" cx="1400.34" cy="190.85" fill="#8b9ad9"></circle><circle r="5" cx="1417.38" cy="343.06" fill="#8b9ad9"></circle><circle r="5" cx="1460.07" cy="555.76" fill="#8b9ad9"></circle><circle r="5" cx="1414.95" cy="652.82" fill="#8b9ad9"></circle><circle r="5" cx="1460.12" cy="819.08" fill="#8b9ad9"></circle><circle r="5" cx="1540.72" cy="-83.04" fill="#8b9ad9"></circle><circle r="5" cx="1584.53" cy="68.26" fill="#8b9ad9"></circle><circle r="5" cx="1600.56" cy="196.38" fill="#8b9ad9"></circle><circle r="5" cx="1556.53" cy="343.35" fill="#8b9ad9"></circle><circle r="5" cx="1590.97" cy="544.84" fill="#8b9ad9"></circle></g><defs><mask id="SvgjsMask1000"><rect width="1364" height="635" fill="#ffffff"></rect></mask><radialGradient id="SvgjsRadialGradient1001"><stop stop-color="#ffffff" offset="0.1"></stop><stop stop-color="#1735b3" offset="0.2"></stop><stop stop-color="rgba(23, 53, 179, 0)" offset="1"></stop></radialGradient></defs></svg>